# xmcd CD database file
#
# Track frame offsets:
#	150
#	11047
#	28522
#	39182
#	51995
#	71197
#	82820
#	93330
#	109232
#	122660
#	134727
#	152285
#	164510
#	176127
#	186922
#	215507
#	226610
#	239135
#	251435
#	261172
#	280085
#	293510
#
# Disc length: 4157 seconds
#
# Revision: 2
# Processed by: cddbd v1.5.2PL0 Copyright (c) Steve Scherf et al.
# Submitted via: jetAudio 7
#
DISCID=35103b16
DTITLE=Chet Atkins - The Magic Of Chet Atkins
DYEAR=1900
DGENRE=country
TTITLE0=Half As Much
TTITLE1=Memory
TTITLE2=Mr. Sandman
TTITLE3=Vaya Con Dios
TTITLE4=Sails
TTITLE5=The Entertainer
TTITLE6=True Love
TTITLE7=Chariots Of Fire
TTITLE8=Blue Eyes Crying In The Rain
TTITLE9=Mona Lisa
TTITLE10=Classical Gas
TTITLE11=Annie's Song
TTITLE12=For The Good Times
TTITLE13=Hymne (from "The Opera Sauvage Suite")
TTITLE14=Why Worry
TTITLE15=Tennessee Waltz
TTITLE16=Green, Green Grass Of Home
TTITLE17=Somewhere My Love
TTITLE18=Honolulu Blue
TTITLE19=The Last Farewell
TTITLE20=Waltz For The Lonely
TTITLE21=I Still Can't Say Goodbye
EXTD=
EXTT0=
EXTT1=
EXTT2=
EXTT3=
EXTT4=
EXTT5=
EXTT6=
EXTT7=
EXTT8=
EXTT9=
EXTT10=
EXTT11=
EXTT12=
EXTT13=
EXTT14=
EXTT15=
EXTT16=
EXTT17=
EXTT18=
EXTT19=
EXTT20=
EXTT21=
PLAYORDER=
